# xmcd
#
# Track frame offsets: 
#        150
#        19325
#        32494
#        49111
#        56307
#        76591
#        83036
#        97087
#        113379
#        129527
#
# Disc length: 1912 seconds
#
# Revision: 0
# Processed by: cddbd v1.5.2PL0 Copyright (c) Steve Scherf et al.
# Submitted via: ExactAudioCopyFreeDBPlugin 1.0
#
DISCID=6b07760a
DTITLE=Tim Heidecker - In Glendale
DYEAR=1900
DGENRE=
TTITLE0=In Glendale
TTITLE1=CleaningUp the Dog Shit
TTITLE2=Work From Home
TTITLE3=Ghost In My Bed
TTITLE4=Good Looking Babies
TTITLE5=When the Cash Runs Out
TTITLE6=I Dare you to Watch Me Sleep
TTITLE7=Central Air
TTITLE8=I Saw Nicolas Cage
TTITLE9=Ocean's too Cold
EXTD=
EXTT0=
EXTT1=
EXTT2=
EXTT3=
EXTT4=
EXTT5=
EXTT6=
EXTT7=
EXTT8=
EXTT9=
PLAYORDER=
